<?xml version="1.0" standalone="no"?>
<!DOCTYPE svg PUBLIC "-//W3C//DTD SVG 20010904//EN"
 "http://www.w3.org/TR/2001/REC-SVG-20010904/DTD/svg10.dtd">
<svg version="1.0" xmlns="http://www.w3.org/2000/svg"
 width="700.000000pt" height="700.000000pt" viewBox="0 0 700.000000 700.000000"
 preserveAspectRatio="xMidYMid meet">
<metadata>
Created by potrace 1.11, written by Peter Selinger 2001-2013
</metadata>
<g transform="translate(0.000000,700.000000) scale(0.100000,-0.100000)"
fill="#000000" stroke="none">
<path d="M3289 6926 c-2 -2 -42 -6 -89 -10 -47 -3 -94 -8 -105 -10 -11 -2 -45
-7 -75 -11 -76 -9 -112 -15 -130 -20 -8 -2 -30 -7 -48 -10 -443 -75 -930 -285
-1352 -585 -325 -231 -647 -571 -873 -922 -49 -76 -187 -315 -187 -324 0 -1
-20 -45 -44 -96 -58 -125 -155 -378 -170 -443 -2 -5 -8 -30 -15 -55 -8 -25
-14 -49 -15 -55 -1 -5 -5 -19 -9 -30 -3 -11 -9 -31 -11 -45 -3 -14 -12 -55
-20 -91 -9 -37 -22 -113 -31 -170 -9 -57 -18 -115 -20 -128 -28 -168 -27 -625
1 -846 97 -762 439 -1459 980 -1999 99 -100 170 -164 255 -232 41 -32 76 -61
79 -64 9 -10 145 -106 217 -153 414 -270 879 -446 1381 -522 244 -37 644 -42
902 -10 231 28 423 71 644 141 631 203 1224 613 1626 1125 27 35 63 80 78 99
43 54 172 254 230 356 52 91 133 259 200 414 67 155 161 497 196 710 15 93 17
113 33 255 15 138 8 621 -11 722 -2 10 -7 43 -11 73 -11 87 -52 286 -79 390
-137 518 -420 1037 -776 1424 -145 158 -282 285 -420 391 -36 28 -67 53 -70
56 -12 15 -234 161 -315 207 -49 29 -97 57 -105 62 -8 6 -22 13 -30 17 -8 3
-69 32 -135 63 -149 72 -354 153 -445 175 -3 1 -12 4 -20 7 -15 6 -41 13 -155
43 -94 25 -291 62 -395 74 -52 7 -108 14 -125 17 -35 6 -530 16 -536 10z"/>
</g>
</svg>
