<?xml version="1.0" encoding="utf-8"?>
<!-- Generator: Adobe Illustrator 23.0.5, SVG Export Plug-In . SVG Version: 6.00 Build 0)  -->
<svg version="1.1" id="Layer_1" xmlns="http://www.w3.org/2000/svg" xmlns:xlink="http://www.w3.org/1999/xlink" x="0px" y="0px"
	 viewBox="0 0 512 512" style="enable-background:new 0 0 512 512;" xml:space="preserve">
<style type="text/css">
	.st0{fill:#FFC107;}
</style>
<circle class="st0" cx="276.9" cy="244.2" r="149.1"/>
<g id="graduate-avatar-laptop-education">
	<path d="M376.3,315h-4.4c0.7-2.2,1-4.5,1-6.8c0-6.3-2.4-12.3-6.8-16.7v-27.7c0-8.1-5.7-15.1-13.7-16.7v-10.6
		c0-5.7-4.6-10.2-10.3-10.3h-35.9c5.6-6.7,8.6-15.2,8.6-23.9v-3.9c7.3-1.9,11.7-9.3,9.8-16.6c-1.3-4.9-5.2-8.8-10.2-9.9l-2.2-17.1
		l9.3-2.7v12.5h6.8v-17.1c0-1.5-1-2.9-2.5-3.3l-47.8-13.7c-0.6-0.2-1.2-0.2-1.8,0l-47.8,13.7c-1.8,0.5-2.9,2.4-2.3,4.2
		c0.3,1.1,1.2,2,2.3,2.3l13.7,3.9l-2.2,17.1c-7.3,1.7-11.9,9-10.3,16.3c1.1,5,5,8.9,9.9,10.2v3.9c0,8.7,3.1,17.2,8.6,23.9h-36
		c-5.7,0-10.2,4.6-10.3,10.3V247c-7.9,1.6-13.6,8.6-13.7,16.7v27.7c-4.4,4.5-6.8,10.5-6.8,16.7c0,2.3,0.3,4.6,1,6.8h-4.4
		c-1.9,0-3.4,1.5-3.4,3.4v13.7c0,1.9,1.5,3.4,3.4,3.4h198.2c1.9,0,3.4-1.5,3.4-3.4v-13.7C379.7,316.5,378.2,315,376.3,315z
		 M314.8,179.3c3.2,1.8,4.4,6,2.5,9.2c-0.6,1.1-1.5,1.9-2.5,2.5V179.3z M239.6,191c-3.2-1.8-4.4-6-2.5-9.2c0.6-1.1,1.5-1.9,2.5-2.5
		V191z M352.4,254.1c4.1,1.5,6.8,5.3,6.8,9.7v22.8c-2.2-1-4.5-1.7-6.8-2.1V254.1z M352.4,291.4c7.9,1.6,13.6,8.6,13.7,16.7
		c0,2.4-0.5,4.7-1.4,6.8h-6c0.4-1.1,0.6-2.3,0.6-3.4v-3.4c0-3.8-3.1-6.8-6.8-6.8V291.4z M241.8,147.6l35.4-10.1l35.4,10.1
		l-35.4,10.1L241.8,147.6z M307.5,171.5h-60.6l1.9-14.8l27.5,7.9c0.6,0.2,1.2,0.2,1.8,0l27.5-7.9L307.5,171.5z M246.5,202.3v-23.9
		H308v23.9c0,8.2-3.2,16-9,21.7c-0.8,0.8-1.6,1.5-2.5,2.2H258C250.7,220.3,246.5,211.6,246.5,202.3z M208.9,236.4
		c0-1.9,1.5-3.4,3.4-3.4h129.8c1.9,0,3.4,1.5,3.4,3.4v64.9H208.9V236.4z M352.4,308.2v3.4c0,1.9-1.5,3.4-3.4,3.4H205.5
		c-1.9,0-3.4-1.5-3.4-3.4v-3.4H352.4z M195.2,263.8c0-4.3,2.7-8.2,6.8-9.7v30.4c-2.4,0.3-4.7,1-6.8,2.1V263.8z M202.1,291.4v9.9
		c-3.8,0-6.8,3.1-6.8,6.8v3.4c0,1.2,0.2,2.3,0.6,3.4h-6c-3.8-8.6,0.2-18.7,8.8-22.5C199.7,292,200.9,291.7,202.1,291.4z
		 M372.9,328.7H181.6v-6.8h191.3V328.7z"/>
	<path d="M277.2,280.8c7.5,0,13.7-6.1,13.7-13.7h-6.8c0,3.8-3.1,6.8-6.8,6.8s-6.8-3.1-6.8-6.8s3.1-6.8,6.8-6.8v-6.8
		c-7.5,0-13.7,6.1-13.7,13.7C263.6,274.7,269.7,280.8,277.2,280.8z"/>
	<path d="M263.6,202.3c1.9,0,3.4-1.5,3.4-3.4V192c0-1.9-1.5-3.4-3.4-3.4s-3.4,1.5-3.4,3.4v6.8C260.1,200.7,261.7,202.3,263.6,202.3z
		"/>
	<path d="M290.9,188.6c-1.9,0-3.4,1.5-3.4,3.4v6.8c0,1.9,1.5,3.4,3.4,3.4s3.4-1.5,3.4-3.4V192C294.3,190.1,292.8,188.6,290.9,188.6z
		"/>
	<path d="M277.2,215.9c-6.6,0-10.3-2.6-10.3-3.4h-6.8c0,5.8,7.3,10.3,17.1,10.3s17.1-4.4,17.1-10.3h-6.8
		C287.5,213.4,283.8,215.9,277.2,215.9z"/>
</g>
</svg>
