<?xml version="1.0" encoding="utf-8"?>
<!-- Generator: Adobe Illustrator 23.0.5, SVG Export Plug-In . SVG Version: 6.00 Build 0)  -->
<svg version="1.1" id="Layer_1" xmlns="http://www.w3.org/2000/svg" xmlns:xlink="http://www.w3.org/1999/xlink" x="0px" y="0px"
	 viewBox="0 0 512 512" style="enable-background:new 0 0 512 512;" xml:space="preserve">
<style type="text/css">
	.st0{fill:#FFC107;}
</style>
<circle class="st0" cx="276.9" cy="244.2" r="149.1"/>
<g>
	<g>
		<path d="M335.4,213.3l-43-40.7c-1-0.9-2.3-1.5-3.6-1.5h-66.7c-2.9,0-5.3,2.4-5.3,5.3v135.5c0,2.9,2.4,5.3,5.3,5.3h109.7
			c2.9,0,5.3-2.4,5.3-5.3v-94.8C337,215.7,336.4,214.3,335.4,213.3z M326.4,306.6h-99V181.8h59.3l39.8,37.7L326.4,306.6L326.4,306.6
			z"/>
	</g>
</g>
<g>
	<g>
		<path d="M312.1,261.5l-12.9-15.4c-1.9-2.2-5.2-2.5-7.5-0.7c-2.2,1.9-2.5,5.2-0.7,7.5l10,12l-10,12c-1.9,2.2-1.6,5.6,0.7,7.5
			c1,0.8,2.2,1.2,3.4,1.2c1.5,0,3-0.6,4.1-1.9l12.9-15.4C313.7,266.3,313.7,263.5,312.1,261.5z"/>
	</g>
</g>
<g>
	<g>
		<path d="M262.7,276.9l-10.1-12l10-12c1.9-2.2,1.6-5.6-0.7-7.5c-2.2-1.9-5.6-1.6-7.5,0.7l-12.9,15.4c-1.7,2-1.7,4.8,0,6.8
			l12.9,15.4c1.1,1.3,2.6,1.9,4.1,1.9c1.2,0,2.4-0.4,3.4-1.2C264.3,282.5,264.6,279.1,262.7,276.9z"/>
	</g>
</g>
<g>
	<g>
		<path d="M281.6,234c-2.9-0.4-5.6,1.6-6,4.4l-7.8,51.3c-0.4,2.9,1.6,5.6,4.4,6c0.3,0,0.5,0.1,0.8,0.1c2.6,0,4.8-1.9,5.2-4.5
			L286,240C286.5,237.1,284.5,234.4,281.6,234z"/>
	</g>
</g>
<g>
	<g>
		<path d="M294.1,211.8v-35.4h-10.6v40.7c0,2.9,2.4,5.3,5.3,5.3h43v-10.6L294.1,211.8L294.1,211.8z"/>
	</g>
</g>
</svg>
