<?xml version="1.0" encoding="utf-8"?>
<!-- Generator: Adobe Illustrator 23.0.5, SVG Export Plug-In . SVG Version: 6.00 Build 0)  -->
<svg version="1.1" id="Layer_1" xmlns="http://www.w3.org/2000/svg" xmlns:xlink="http://www.w3.org/1999/xlink" x="0px" y="0px"
	 viewBox="0 0 512 512" style="enable-background:new 0 0 512 512;" xml:space="preserve">
<style type="text/css">
	.st0{fill:#FFC107;}
</style>
<circle class="st0" cx="276.9" cy="244.2" r="149.1"/>
<circle cx="296.8" cy="307.6" r="2.2"/>
<circle cx="287.8" cy="307.6" r="2.2"/>
<circle cx="278.9" cy="307.6" r="2.2"/>
<circle cx="252.1" cy="296.4" r="2.2"/>
<path d="M312.1,227.7c-0.9-0.9-2.3-0.9-3.2,0s-0.9,2.3,0,3.2c4.8,4.8,11.1,7.2,17.4,7.2s12.6-2.4,17.4-7.2c0.9-0.9,0.9-2.3,0-3.2
	c-0.9-0.9-2.3-0.9-3.2,0C332.7,235.5,320,235.5,312.1,227.7L312.1,227.7z"/>
<path d="M374.7,139.8h-12.3c-1.1,0-2.1,1-2.1,2.2s0.9,2.2,2.1,2.2h7.4l-19.7,21l-12.9-13.8c-0.8-0.9-2.1-0.9-2.9,0l-9.2,9.8
	c-14.1-13.2-32.5-21.2-52.3-21.4c-42.4-0.4-79.5,37.3-81,82.4c-0.6,20.1,5.4,39.9,17.1,55.7c12.8,17.4,19.9,39,19.9,61.1
	c0,1.2,0.9,2.2,2.1,2.2h74c1.1,0,2.1-1,2.1-2.2v-28.4h35c5.7,0,10.3-4.9,10.3-10.9v-32.8h12.3c4.6,0,8.3-4,8.3-8.8
	c0-1.8-0.5-3.6-1.5-5.1l-2.5-3.8c-8.5-12.7-14.9-27.8-18.9-44.7c-3.7-15.7-11.4-29.4-21.7-40.1l7.6-8.1l12.9,13.8
	c0.8,0.9,2.1,0.9,2.9,0l21.2-22.5v7.8c0,1.2,0.9,2.2,2.1,2.2c1.1,0,2.1-1,2.1-2.2V142C376.7,140.8,375.8,139.8,374.7,139.8
	L374.7,139.8z M345.7,205.4c4.1,17.5,10.7,33,19.5,46.2l2.5,3.8c0.5,0.8,0.8,1.6,0.8,2.6c0,2.4-1.9,4.4-4.2,4.4H350
	c-1.1,0-2.1,1-2.1,2.2v15.3h-14.4c-3.4,0-6.2-2.9-6.2-6.6v-2.2c0-1.2-0.9-2.2-2.1-2.2c-1.1,0-2.1,1-2.1,2.2v2.2
	c0,6,4.6,10.9,10.3,10.9h14.4v15.3c0,3.6-2.8,6.6-6.2,6.6h-32l-9.1-9.7V258c0-0.6-0.2-1.1-0.6-1.5l-9.7-10.3v-25.4
	c0-1.2-0.9-2.2-2.1-2.2c-1.1,0-2.1,1-2.1,2.2V247c0,0.6,0.2,1.1,0.6,1.5l9.7,10.3v38.5c0,0.6,0.2,1.1,0.6,1.5l6.8,7.2h-7.4
	c-1.1,0-2.1,1-2.1,2.2c0,1.2,0.9,2.2,2.1,2.2h6.2v26.3h-53.5v-30.6c0-1.2-0.9-2.2-2.1-2.2s-2.1,1-2.1,2.2v30.6h-12.4
	c-0.5-22.3-7.8-44.1-20.7-61.6c-2.5-3.4-4.7-6.9-6.6-10.6h23.3c1.1,0,2.1-1,2.1-2.2s-0.9-2.2-2.1-2.2h-25.4c-1-2.1-1.8-4.3-2.6-6.6
	h28c1.1,0,2.1-1,2.1-2.2c0-1.2-0.9-2.2-2.1-2.2h-29.4c-0.6-2.2-1.2-4.3-1.6-6.6h31.1c1.1,0,2.1-1,2.1-2.2c0-1.2-0.9-2.2-2.1-2.2
	h-31.9c-0.8-5.2-1.2-10.6-1-16c1.4-42.5,36.1-78.1,76.1-78.1c0.2,0,0.5,0,0.7,0c18.7,0.2,36.1,7.7,49.4,20.1l-7.5,8
	c-2.7-2.7-6.3-4.2-10.4-4c-1.8-6.4-7.4-11-13.8-11c-2.1,0-4.1,0.5-5.9,1.4c-2.5-4.8-7.3-7.9-12.6-7.9s-10.1,3.1-12.6,7.9
	c-1.8-0.9-3.9-1.4-5.9-1.4c-6.4,0-12,4.6-13.8,11c-8.2-0.4-15,6.6-15,15.3c0,0.2,0,0.4,0,0.6c-6,1.9-10.3,7.9-10.3,14.7
	c0,8.4,6.5,15.3,14.4,15.3v2.2c0,5.3,3.5,9.7,8.2,10.7v103.1c0,1.2,0.9,2.2,2.1,2.2s2.1-1,2.1-2.2V227.3h14.4v7.8l-9.7,10.3
	c-0.4,0.4-0.6,1-0.6,1.5v41.6c0,1.2,0.9,2.2,2.1,2.2s2.1-1,2.1-2.2v-40.7l9.7-10.3c0.4-0.4,0.6-1,0.6-1.5v-9c4.7-1,8.2-5.4,8.2-10.7
	v-2.2h8.2v14.4l-11.7,12.5c-0.4,0.4-0.6,1-0.6,1.5v21l-7.6,8.1c-0.4,0.4-0.6,1-0.6,1.5v13.1c0,1.2,0.9,2.2,2.1,2.2
	c1.1,0,2.1-1,2.1-2.2v-12.2l4.1-4.4v27.5c0,1.2,0.9,2.2,2.1,2.2c1.1,0,2.1-1,2.1-2.2v-45l8.2,8.8v16.6c0,1.2,0.9,2.2,2.1,2.2
	s2.1-1,2.1-2.2v-17.5c0-0.6-0.2-1.1-0.6-1.5l-11.7-12.5v-2.6l11.7-12.5c0.4-0.4,0.6-1,0.6-1.5v-15.3h35c7.9,0,14.4-6.9,14.4-15.3
	c0-6.8-4.3-12.8-10.3-14.7c0-0.2,0-0.4,0-0.6c0-2.9-0.8-5.6-2-7.9l7.9-8.5C334.9,177.4,342.1,190.5,345.7,205.4L345.7,205.4z
	 M315,183.6c0,0.6-0.1,1.3-0.2,2c-0.1,0.6,0,1.2,0.3,1.7c0.3,0.5,0.8,0.8,1.4,0.9c5,0.8,8.7,5.4,8.7,10.8c0,6-4.6,10.9-10.3,10.9
	h-49.3c-1.1,0-2.1,1-2.1,2.2v4.4c0,3.6-2.8,6.6-6.2,6.6H239c-3.4,0-6.2-2.9-6.2-6.6v-2.2h24.7c1.1,0,2.1-1,2.1-2.2s-0.9-2.2-2.1-2.2
	h-28.8c-5.7,0-10.3-4.9-10.3-10.9c0-5.4,3.8-10,8.7-10.8c0.5-0.1,1-0.1,1.5-0.1c1.2,0,2.3,0.2,3.4,0.6c1.1,0.4,2.2-0.2,2.6-1.3
	s-0.2-2.4-1.3-2.8c-1.5-0.6-3.2-0.9-4.8-0.9c0-6,4.6-10.9,10.3-10.9c2.9,0,5.8,1.4,7.7,3.6c0.4,0.5,1,0.7,1.5,0.7
	c0.5,0,1-0.2,1.4-0.6c0.8-0.8,0.9-2.2,0.2-3.1c-1.7-2-3.8-3.4-6.1-4.2c1.4-4.3,5.3-7.4,9.7-7.4c1.6,0,3.1,0.4,4.5,1.1
	c-0.2,1.1-0.4,2.2-0.4,3.3c0,1.2,0.9,2.2,2.1,2.2c1.1,0,2.1-1,2.1-2.2c0-4.4,2.6-8.5,6.5-10.2c1.2-0.5,2.5-0.8,3.8-0.8
	c3.9,0,7.4,2.3,9.1,6c-3.1,2.8-5,6.9-5,11.6c0,1.2,0.9,2.2,2.1,2.2c1.1,0,2.1-1,2.1-2.2c0-4.5,2.8-8.7,6.7-10.2
	c1.1-0.4,2.3-0.7,3.6-0.7c4.4,0,8.3,3.1,9.7,7.4c-0.9,0.3-1.7,0.7-2.5,1.2c-1,0.6-1.3,1.9-0.7,3c0.6,1,1.8,1.4,2.8,0.8
	c1.2-0.7,2.5-1.2,3.9-1.3c0.4-0.1,0.8-0.1,1.2-0.1c2.6,0,5,1.1,6.8,2.8l-17.1,18.2L283.6,182c-0.8-0.9-2.1-0.9-2.9,0l-10.9,11.6
	L258.9,182c-0.8-0.9-2.1-0.9-2.9,0l-10.9,11.6l-2.7-2.8c-0.8-0.9-2.1-0.9-2.9,0c-0.8,0.9-0.8,2.2,0,3.1l8.2,8.8
	c0.4,0.4,0.9,0.6,1.5,0.6s1.1-0.2,1.5-0.6c0.8-0.9,0.8-2.2,0-3.1l-2.7-2.8l9.4-10l10.9,11.6c0.8,0.9,2.1,0.9,2.9,0l10.9-11.6
	l10.9,11.6c0.4,0.4,0.9,0.6,1.5,0.6s1.1-0.2,1.5-0.6l18.1-19.3C314.7,180.4,315,181.9,315,183.6L315,183.6z"/>
<circle cx="205.1" cy="227" r="2.2"/>
<circle cx="205.1" cy="218.1" r="2.2"/>
<circle cx="205.1" cy="209.1" r="2.2"/>
<circle cx="214" cy="227" r="2.2"/>
<circle cx="214" cy="218.1" r="2.2"/>
<circle cx="223" cy="227" r="2.2"/>
</svg>
