<?xml version="1.0" encoding="utf-8"?>
<!-- Generator: Adobe Illustrator 23.0.5, SVG Export Plug-In . SVG Version: 6.00 Build 0)  -->
<svg version="1.1" id="Layer_1" xmlns="http://www.w3.org/2000/svg" xmlns:xlink="http://www.w3.org/1999/xlink" x="0px" y="0px"
	 viewBox="0 0 512 512" style="enable-background:new 0 0 512 512;" xml:space="preserve">
<style type="text/css">
	.st0{fill:#FFC107;}
</style>
<circle class="st0" cx="276.9" cy="244.2" r="149.1"/>
<path d="M356.1,165.9C335,144.5,376.9,186.9,356.1,165.9c-27.8-28.2-70.4-39.6-108.6-29.3c-35.6,9.7-64.9,37.9-76.4,72.9
	c-7,21.3-7.5,44.6-1.2,66.1c10.1,34.5,37.8,62.8,71.8,74.2c36.2,12.2,77.7,4,106.9-20.6c8.1-6.8,15.3-15,21.2-23.8
	c0.5-0.7,1-1.5,1.4-2.2c1.3-2.1,0.7-4.8-1.4-6.1c-2.1-1.3-4.8-0.7-6.1,1.4c-0.4,0.7-0.9,1.4-1.3,2c-3.2,4.9-6.9,9.5-10.9,13.8
	L335.2,298c4.7-5.1,8.8-10.9,12-17.1c3.3-6.4,5.8-13.2,7.3-20.2c0.7-3.5,1.2-7.1,1.5-10.7h23.3c-0.3,6.2-1.2,12.3-2.7,18.3
	c-0.6,2.4,0.9,4.8,3.3,5.4c2.4,0.6,4.8-0.9,5.4-3.3C394.1,233.1,383,193.2,356.1,165.9z M330.2,185.5c-5.3-4.8-11.2-8.9-17.5-12.1
	c-6.5-3.3-13.6-5.7-20.8-7.1c-3.6-0.7-7.3-1.1-11-1.3v-23.2c24.6,0.9,47.7,10.5,65.8,27.4L330.2,185.5z M272,165c-3,0.2-6,0.5-9,1.1
	c-2.4,0.4-4,2.7-3.6,5.1c0.4,2.4,2.7,4,5.1,3.6c9.5-1.7,19.6-1.5,29,0.8c8.1,2,15.8,5.5,22.7,10.3c6.8,4.7,12.8,10.7,17.6,17.4
	c4.8,6.8,8.5,14.4,10.7,22.5c1.6,5.8,2.4,11.8,2.5,17.8c0.1,19.1-7.4,37.9-21.2,51.2c-25.1,24.3-67,26-93.9,3.5
	c-20.8-17.4-30.1-47.2-22.7-73.3c4.1-14.6,12.9-27.9,25.1-37.1c2-1.5,2.3-4.3,0.9-6.2c-1.5-2-4.3-2.3-6.2-0.9c-2.1,1.6-4.1,3.2-6,5
	l-16.4-16.4c17.9-16.9,40.8-26.6,65.4-27.7L272,165L272,165z M272,346.6c-23.8-1.1-46.3-10.4-63.9-26.4l16.4-16.4
	c5.5,4.9,11.7,9,18.4,12.1c5.7,2.7,11.8,4.7,18,6c3.7,0.7,7.4,1.2,11.1,1.5L272,346.6L272,346.6z M200.5,175.8l16.4,16.4
	c-4.5,5.2-8.3,10.9-11.3,17c-3.1,6.4-5.4,13.1-6.7,20.1c-0.7,3.9-1.2,7.8-1.3,11.8h-23.2C175.1,216.8,184.3,193.9,200.5,175.8z
	 M197.8,250c0.5,6.6,1.8,13.2,3.9,19.5c2.3,6.9,5.6,13.4,9.6,19.3c2.1,3,4.4,5.9,6.9,8.7L201.8,314c-16.4-17.6-25.9-40-27.3-64
	H197.8z M280.9,323.4c6.9-0.3,13.8-1.6,20.4-3.7c6.6-2.1,12.9-5.1,18.7-8.9c3.1-2,6-4.2,8.8-6.6l16.4,16.4
	c-17.8,16-40.4,25.1-64.3,26V323.4z M356.1,241.1c-0.3-6.8-1.4-13.7-3.4-20.2c-2.1-7-5.3-13.7-9.3-19.9c-2.1-3.2-4.4-6.3-7-9.2
	l16.4-16.4c16.4,18.1,25.7,41.2,26.5,65.7L356.1,241.1L356.1,241.1z"/>
<path d="M272.8,217.6c0-2.1-2.4-2.6-4.1-2.6c-1.7,0-4.1,0.6-4.1,2.6v37.2c0,3.6-1.1,7.4-4.6,9.1c-3.4,1.6-8.7,1.4-11.6-1.2
	c-2.7-2.4-2.8-6.5-2.8-10.1c0-11.3,0-22.6,0.1-33.9c0-0.7,0-1.5-0.4-2.1c-0.7-1.3-2.5-1.5-4-1.4c-1.4,0-3.2,0.3-3.7,1.7
	c-0.2,0.4-0.2,0.9-0.2,1.4c0,11.4,0,22.8,0,34.1c0,4.8,0.1,10,3,13.9c4.4,5.8,13.5,6.9,20.1,5.4c3.4-0.8,6.7-2.4,8.9-5.2
	c2.6-3.2,3.3-7.5,3.3-11.5V217.6z"/>
<path d="M292.9,243.2c0,0-13.4,22.9-13.4,22.9c-2.4,4.1,5.2,7.7,7.4,3.8l11.3-20.6c0,0,11.4,20.5,11.5,20.6c2.3,4.1,9.8,0.3,7.4-3.8
	l-13.4-22.9c0,0,13-22.7,13-22.8c2.6-4.6-5.1-7.9-7.6-3.4l-10.8,19.8c0,0-10.7-19.8-10.7-19.8c-2.4-4.5-10.4-1.3-7.7,3.4
	L292.9,243.2z"/>
<path d="M242.8,177c0.9,2.2,3.6,3.4,5.8,2.4c2.3-1,3.3-3.7,2.3-5.9c-0.9-2.3-3.7-3.4-5.9-2.4C242.8,172.1,241.9,174.8,242.8,177z"/>
<path d="M379.5,284c-0.9-2.2-3.5-3.4-5.8-2.4c-2.2,0.9-3.4,3.5-2.4,5.8l0.1,0.1c1,2.4,3.8,3.5,6.1,2.3c2-1,3-3.5,2.1-5.6L379.5,284z
	"/>
</svg>
