<?xml version="1.0" encoding="utf-8"?>
<!-- Generator: Adobe Illustrator 23.0.5, SVG Export Plug-In . SVG Version: 6.00 Build 0)  -->
<svg version="1.1" id="Layer_1" xmlns="http://www.w3.org/2000/svg" xmlns:xlink="http://www.w3.org/1999/xlink" x="0px" y="0px"
	 viewBox="0 0 512 512" style="enable-background:new 0 0 512 512;" xml:space="preserve">
<style type="text/css">
	.st0{fill:#FFC107;}
</style>
<circle class="st0" cx="276.9" cy="244.2" r="149.1"/>
<g>
	<path d="M345.9,316.8H208.1c-10.2,0-18.1-8-18.1-18.1v-87.1c0-10.2,8-18.1,18.1-18.1h137.9c10.2,0,18.1,8,18.1,18.1v87.1
		C364.1,308.8,356.1,316.8,345.9,316.8z M208.1,200.7c-5.8,0-10.9,5.1-10.9,10.9v87.1c0,5.8,5.1,10.9,10.9,10.9h137.9
		c5.8,0,10.9-5.1,10.9-10.9v-87.1c0-5.8-5.1-10.9-10.9-10.9H208.1z"/>
</g>
<g>
	<path d="M302.4,200.7c-2.2,0-3.6-1.5-3.6-3.6v-14.5c0-2.2-1.5-3.6-3.6-3.6h-36.3c-2.2,0-3.6,1.5-3.6,3.6V197c0,2.2-1.5,3.6-3.6,3.6
		s-3.6-1.5-3.6-3.6v-14.5c0-5.8,5.1-10.9,10.9-10.9h36.3c5.8,0,10.9,5.1,10.9,10.9V197C306,199.2,304.6,200.7,302.4,200.7z"/>
</g>
<g>
	<path d="M277,258.7c-0.7,0-0.7,0-1.5,0l-83.5-29c-1.5-0.7-2.9-2.9-2.2-5.1c0.7-1.5,2.9-2.9,5.1-2.2l82,29l82-29
		c2.2-0.7,3.6,0,4.4,2.2s0,3.6-2.2,4.4l-83.5,29C277.7,258.7,277.7,258.7,277,258.7L277,258.7z"/>
</g>
</svg>
